<svg xmlns="http://www.w3.org/2000/svg" width="499" height="71" viewBox="0 0 499 71">
  <defs>
    <style>
      .cls-1 {
        fill: #fff;
      }

      .cls-1, .cls-2 {
        fill-rule: evenodd;
      }

      .cls-2 {
        fill: #feffff;
      }
    </style>
  </defs>
  <path id="OSCAR_THROEDSSON" data-name="OSCAR THROEDSSON" class="cls-1" d="M24,68.94a17.348,17.348,0,0,0,5.5-3.84,17.585,17.585,0,0,0,3.6-5.5,16.657,16.657,0,0,0,1.272-6.432,17.155,17.155,0,0,0-1.224-6.36,18.335,18.335,0,0,0-3.48-5.592A16.463,16.463,0,0,0,17.189,35.8,17.283,17.283,0,0,0,10.2,37.188,16.974,16.974,0,0,0,4.684,41a17.939,17.939,0,0,0-3.624,5.5,16.5,16.5,0,0,0-1.3,6.48A17.278,17.278,0,0,0,.988,59.388a17.8,17.8,0,0,0,3.5,5.568A17.042,17.042,0,0,0,9.94,68.892,16.614,16.614,0,0,0,17,70.356,16.98,16.98,0,0,0,24,68.94ZM9.725,49.788a8.638,8.638,0,0,1,1.416-2.88,7.156,7.156,0,0,1,2.424-2.04,7.4,7.4,0,0,1,3.48-.768,7.848,7.848,0,0,1,3.456.72,6.649,6.649,0,0,1,2.448,1.992,9.072,9.072,0,0,1,1.44,2.856,11.375,11.375,0,0,1,.48,3.312,12,12,0,0,1-.456,3.288A9.505,9.505,0,0,1,23.021,59.2,6.665,6.665,0,0,1,20.6,61.284a7.542,7.542,0,0,1-3.5.768,7.588,7.588,0,0,1-3.48-.744,6.9,6.9,0,0,1-2.424-2.016,8.985,8.985,0,0,1-1.44-2.88,11.591,11.591,0,0,1-.48-3.336A11.979,11.979,0,0,1,9.725,49.788Zm53.016-10.3q-1.537-.767-3.576-1.632A31.167,31.167,0,0,0,54.8,36.4a19.267,19.267,0,0,0-4.824-.6,15.047,15.047,0,0,0-6.264,1.311,11.268,11.268,0,0,0-4.68,3.838,10.671,10.671,0,0,0-1.776,6.292,8.985,8.985,0,0,0,.912,4.219,8.14,8.14,0,0,0,2.832,3,21.29,21.29,0,0,0,4.9,2.264q2.063,0.668,3.768,1.168a15.8,15.8,0,0,1,2.76,1.048,1.7,1.7,0,0,1,1.056,1.55,1.182,1.182,0,0,1-.6,1.03,4.191,4.191,0,0,1-2.136.389,13.7,13.7,0,0,1-3.912-.576,27.232,27.232,0,0,1-3.528-1.3,35.266,35.266,0,0,1-3.5-1.872l-4.032,8.208a27.115,27.115,0,0,0,4.56,2.088,34.429,34.429,0,0,0,5.16,1.392,27.506,27.506,0,0,0,5.112.5,20.342,20.342,0,0,0,4.7-.547,12.908,12.908,0,0,0,4.176-1.784,8.914,8.914,0,0,0,2.976-3.305,10.763,10.763,0,0,0,1.1-5.114,9.286,9.286,0,0,0-1.248-5.113,9.444,9.444,0,0,0-3.552-3.163,29.648,29.648,0,0,0-5.472-2.188Q51.316,48.524,49.9,48.1a8.088,8.088,0,0,1-2.184-.952,1.6,1.6,0,0,1-.768-1.379,1.322,1.322,0,0,1,.768-1.284,4.433,4.433,0,0,1,1.968-.381,10.739,10.739,0,0,1,3.12.48,24.979,24.979,0,0,1,2.928,1.08,30.628,30.628,0,0,1,2.976,1.56Zm4.32,19.656a18.6,18.6,0,0,0,3.528,5.664,17.4,17.4,0,0,0,5.424,4.032,15.791,15.791,0,0,0,6.936,1.512,19.6,19.6,0,0,0,5.9-.936,17.45,17.45,0,0,0,5.328-2.712,10.018,10.018,0,0,0,3.36-4.272l-7.632-4.56a5.677,5.677,0,0,1-1.68,2.448,7,7,0,0,1-2.448,1.32,9.053,9.053,0,0,1-2.64.408,7.349,7.349,0,0,1-3.288-.72A7.122,7.122,0,0,1,77.38,59.34a9.164,9.164,0,0,1-1.536-2.9,10.984,10.984,0,0,1-.528-3.408,11.385,11.385,0,0,1,.456-3.168,9.242,9.242,0,0,1,1.392-2.88,7.047,7.047,0,0,1,2.4-2.088,7.212,7.212,0,0,1,3.48-.792,10.448,10.448,0,0,1,2.664.36,7.062,7.062,0,0,1,2.544,1.272,5.689,5.689,0,0,1,1.8,2.592L97.2,43.236a13.266,13.266,0,0,0-5.424-5.4,17.223,17.223,0,0,0-8.544-2.04,17.591,17.591,0,0,0-7.32,1.464,16.754,16.754,0,0,0-5.5,3.912,17.3,17.3,0,0,0-3.432,5.448,16.629,16.629,0,0,0-1.176,6.12A17.217,17.217,0,0,0,67.06,59.148ZM97.3,70.116h9.552l1.762-6.672h9.629L120,70.116h9.5L118.66,36.036H108.2ZM110.261,57.2l3.167-12,3.168,12h-6.335ZM141.7,70.116V59.652h3.792l6,10.464h10.272l-7.2-12.528a11.7,11.7,0,0,0,2.64-2.616,11.47,11.47,0,0,0,1.68-3.336,12.514,12.514,0,0,0,.576-3.792,11.476,11.476,0,0,0-.84-4.272,12.634,12.634,0,0,0-2.376-3.816,11.571,11.571,0,0,0-3.648-2.712,10.559,10.559,0,0,0-4.608-1.008H132.34v34.08h9.36Zm0-25.92h5.664a2.017,2.017,0,0,1,1.176.432,3.373,3.373,0,0,1,1.008,1.224,4.329,4.329,0,0,1,.408,1.992,4.858,4.858,0,0,1-.36,1.968,3.288,3.288,0,0,1-.888,1.248,1.723,1.723,0,0,1-1.1.432h-5.9V44.2Zm59.039-8.16H171.747V44.2h9.84v25.92h9.36V44.2h9.792v-8.16Zm24.192,0V48.612H213.507V36.036h-9.36v34.08h9.36V56.772h11.424V70.116h9.36V36.036h-9.36Zm24.576,34.08V59.652H253.3l6,10.464h10.272l-7.2-12.528a11.72,11.72,0,0,0,2.64-2.616,11.47,11.47,0,0,0,1.68-3.336,12.514,12.514,0,0,0,.576-3.792,11.5,11.5,0,0,0-.84-4.272,12.634,12.634,0,0,0-2.376-3.816,11.583,11.583,0,0,0-3.648-2.712,10.565,10.565,0,0,0-4.608-1.008H240.147v34.08h9.36Zm0-25.92h5.664a2.019,2.019,0,0,1,1.176.432,3.373,3.373,0,0,1,1.008,1.224,4.342,4.342,0,0,1,.408,1.992,4.858,4.858,0,0,1-.36,1.968,3.288,3.288,0,0,1-.888,1.248,1.725,1.725,0,0,1-1.1.432h-5.9V44.2ZM294.483,68.94a17.354,17.354,0,0,0,5.5-3.84,17.574,17.574,0,0,0,3.6-5.5,16.666,16.666,0,0,0,1.272-6.432,17.155,17.155,0,0,0-1.224-6.36,18.33,18.33,0,0,0-3.48-5.592,16.463,16.463,0,0,0-12.48-5.424,17.285,17.285,0,0,0-6.984,1.392A16.971,16.971,0,0,0,275.163,41a17.93,17.93,0,0,0-3.624,5.5,16.5,16.5,0,0,0-1.3,6.48,17.278,17.278,0,0,0,1.224,6.408,17.8,17.8,0,0,0,3.5,5.568,17.036,17.036,0,0,0,5.448,3.936,16.613,16.613,0,0,0,7.056,1.464A16.979,16.979,0,0,0,294.483,68.94ZM280.2,49.788a8.634,8.634,0,0,1,1.416-2.88,7.154,7.154,0,0,1,2.424-2.04,7.4,7.4,0,0,1,3.48-.768,7.847,7.847,0,0,1,3.456.72,6.657,6.657,0,0,1,2.448,1.992,9.061,9.061,0,0,1,1.44,2.856,11.391,11.391,0,0,1,.48,3.312,11.99,11.99,0,0,1-.456,3.288A9.517,9.517,0,0,1,293.5,59.2a6.669,6.669,0,0,1-2.424,2.088,8.443,8.443,0,0,1-6.984.024,6.9,6.9,0,0,1-2.424-2.016,8.964,8.964,0,0,1-1.44-2.88,11.6,11.6,0,0,1-.48-3.336A11.96,11.96,0,0,1,280.2,49.788ZM318.2,61.956V56.58h12.384V49H318.2V44.2h14.5v-8.16H308.835v34.08h24.288v-8.16H318.2Zm32.4,8.16A18.57,18.57,0,0,0,359.642,68a14.915,14.915,0,0,0,6-5.952,18.269,18.269,0,0,0,2.136-9.024,18.793,18.793,0,0,0-1.944-8.568,14.79,14.79,0,0,0-5.76-6.144,18.208,18.208,0,0,0-9.48-2.28h-13.1v34.08h13.1Zm6.768-12.5a7.386,7.386,0,0,1-2.616,3.192,7.24,7.24,0,0,1-4.152,1.152H346.85V44.2h3.744a7.506,7.506,0,0,1,4.128,1.1,7.068,7.068,0,0,1,2.64,3.1A12.1,12.1,0,0,1,357.362,57.612Zm38.88-18.12q-1.538-.767-3.576-1.632A31.224,31.224,0,0,0,388.3,36.4a19.273,19.273,0,0,0-4.824-.6,15.042,15.042,0,0,0-6.264,1.311,11.262,11.262,0,0,0-4.68,3.838,10.666,10.666,0,0,0-1.776,6.292,8.976,8.976,0,0,0,.912,4.219,8.129,8.129,0,0,0,2.832,3,21.271,21.271,0,0,0,4.9,2.264q2.063,0.668,3.768,1.168a15.837,15.837,0,0,1,2.76,1.048,1.7,1.7,0,0,1,1.056,1.55,1.183,1.183,0,0,1-.6,1.03,4.194,4.194,0,0,1-2.136.389,13.7,13.7,0,0,1-3.912-.576,27.232,27.232,0,0,1-3.528-1.3,35.211,35.211,0,0,1-3.5-1.872l-4.032,8.208a27.067,27.067,0,0,0,4.56,2.088,34.413,34.413,0,0,0,5.16,1.392,27.506,27.506,0,0,0,5.112.5,20.348,20.348,0,0,0,4.7-.547,12.908,12.908,0,0,0,4.176-1.784,8.918,8.918,0,0,0,2.976-3.305,10.772,10.772,0,0,0,1.1-5.114,9.293,9.293,0,0,0-1.248-5.113,9.448,9.448,0,0,0-3.552-3.163,29.648,29.648,0,0,0-5.472-2.188q-1.969-.619-3.384-1.046a8.07,8.07,0,0,1-2.184-.952,1.6,1.6,0,0,1-.768-1.379,1.321,1.321,0,0,1,.768-1.284,4.429,4.429,0,0,1,1.968-.381,10.743,10.743,0,0,1,3.12.48,25.033,25.033,0,0,1,2.928,1.08,30.779,30.779,0,0,1,2.976,1.56Zm29.615,0q-1.536-.767-3.576-1.632a31.136,31.136,0,0,0-4.368-1.464,19.261,19.261,0,0,0-4.824-.6,15.048,15.048,0,0,0-6.264,1.311,11.274,11.274,0,0,0-4.68,3.838,10.673,10.673,0,0,0-1.776,6.292,8.988,8.988,0,0,0,.912,4.219,8.145,8.145,0,0,0,2.832,3,21.31,21.31,0,0,0,4.9,2.264q2.064,0.668,3.768,1.168a15.775,15.775,0,0,1,2.76,1.048,1.7,1.7,0,0,1,1.056,1.55,1.181,1.181,0,0,1-.6,1.03,4.189,4.189,0,0,1-2.136.389,13.706,13.706,0,0,1-3.912-.576,27.232,27.232,0,0,1-3.528-1.3,35.321,35.321,0,0,1-3.5-1.872l-4.032,8.208a27.14,27.14,0,0,0,4.56,2.088,34.445,34.445,0,0,0,5.16,1.392,27.506,27.506,0,0,0,5.112.5,20.341,20.341,0,0,0,4.7-.547,12.908,12.908,0,0,0,4.176-1.784,8.91,8.91,0,0,0,2.976-3.305,10.76,10.76,0,0,0,1.1-5.114,9.285,9.285,0,0,0-1.248-5.113,9.44,9.44,0,0,0-3.552-3.163,29.648,29.648,0,0,0-5.472-2.188q-1.968-.619-3.384-1.046a8.1,8.1,0,0,1-2.184-.952,1.6,1.6,0,0,1-.768-1.379,1.322,1.322,0,0,1,.768-1.284A4.435,4.435,0,0,1,412.8,44.1a10.738,10.738,0,0,1,3.12.48,24.966,24.966,0,0,1,2.928,1.08,30.548,30.548,0,0,1,2.976,1.56ZM453.169,68.94a17.354,17.354,0,0,0,5.5-3.84,17.609,17.609,0,0,0,3.6-5.5,16.666,16.666,0,0,0,1.272-6.432,17.155,17.155,0,0,0-1.224-6.36,18.349,18.349,0,0,0-3.48-5.592,16.463,16.463,0,0,0-12.48-5.424,17.279,17.279,0,0,0-6.984,1.392A16.961,16.961,0,0,0,433.849,41a17.93,17.93,0,0,0-3.624,5.5,16.5,16.5,0,0,0-1.3,6.48,17.278,17.278,0,0,0,1.224,6.408,17.782,17.782,0,0,0,3.5,5.568,17.036,17.036,0,0,0,5.448,3.936,16.613,16.613,0,0,0,7.056,1.464A16.982,16.982,0,0,0,453.169,68.94Zm-14.28-19.152a8.615,8.615,0,0,1,1.416-2.88,7.144,7.144,0,0,1,2.424-2.04,7.4,7.4,0,0,1,3.48-.768,7.853,7.853,0,0,1,3.456.72,6.657,6.657,0,0,1,2.448,1.992,9.1,9.1,0,0,1,1.44,2.856,11.391,11.391,0,0,1,.48,3.312,12.029,12.029,0,0,1-.456,3.288,9.517,9.517,0,0,1-1.392,2.928,6.669,6.669,0,0,1-2.424,2.088,8.443,8.443,0,0,1-6.984.024,6.893,6.893,0,0,1-2.424-2.016,8.964,8.964,0,0,1-1.44-2.88,11.565,11.565,0,0,1-.48-3.336A11.96,11.96,0,0,1,438.889,49.788Zm51.528,20.328h7.44V36.036H488.5V53.364l-13.68-17.328h-7.3v34.08h9.36V53.364Z"/>
  <path id="NÄR_HÄLSA_BLIR_EN_INVESTERING" data-name="NÄR HÄLSA BLIR EN INVESTERING" class="cls-2" d="M16.954,28.617H18.49V6.816H16.924V26.007L1.724,6.816H0.435v21.8H2V9.733Zm4.79,0h1.689l2.983-7.185H36.95l2.972,7.185H41.58l-9.212-21.8H31.017Zm5.207-8.475L31.693,8.72l4.724,11.422H26.952ZM30.28,3.193V0.49H28.929v2.7H30.28Zm4.176,0V0.49H33.105v2.7h1.351ZM46.462,28.617V20.388h7.062l5.281,8.229h1.812l-5.435-8.475a5.276,5.276,0,0,0,2.687-1.167,6.543,6.543,0,0,0,1.8-2.364,7.23,7.23,0,0,0,.645-3.04,6.6,6.6,0,0,0-.476-2.456,7.462,7.462,0,0,0-1.32-2.165,6.568,6.568,0,0,0-2-1.551,5.6,5.6,0,0,0-2.564-.583H44.9v21.8h1.566Zm0-20.388h7.431a4.2,4.2,0,0,1,2.441.752,5.607,5.607,0,0,1,1.75,1.965,5.408,5.408,0,0,1,.66,2.625,6.145,6.145,0,0,1-.568,2.61,5.073,5.073,0,0,1-1.612,2,4.033,4.033,0,0,1-2.456.768H46.462V8.228ZM88.036,6.816v9.949H74.28V6.816H72.714v21.8H74.28V18.177H88.036v10.44H89.6V6.816H88.036Zm4.82,21.8h1.689l2.983-7.185h10.534l2.972,7.185h1.658l-9.211-21.8h-1.352Zm5.208-8.475L102.805,8.72l4.724,11.422H98.064Zm3.329-16.949V0.49h-1.351v2.7h1.351Zm4.176,0V0.49h-1.352v2.7h1.352Zm25.024,25.424V27.2H117.574V6.816h-1.566v21.8h14.585ZM147.327,9.211a9.1,9.1,0,0,0-1.919-1.428,8.543,8.543,0,0,0-2.241-.844,11.813,11.813,0,0,0-2.626-.276,10.7,10.7,0,0,0-4.022.705,5.953,5.953,0,0,0-2.717,2.07,5.6,5.6,0,0,0-.968,3.327,4.463,4.463,0,0,0,.814,2.821,5.429,5.429,0,0,0,2.426,1.656,26.957,26.957,0,0,0,3.915,1.1,28.382,28.382,0,0,1,3.838,1.058,5.232,5.232,0,0,1,2.272,1.457,3.535,3.535,0,0,1,.737,2.33,3.511,3.511,0,0,1-1.612,3.142,8.09,8.09,0,0,1-4.468,1.057,11.87,11.87,0,0,1-2.364-.23,12.314,12.314,0,0,1-2.134-.63,9.768,9.768,0,0,1-1.842-.967,8.4,8.4,0,0,1-1.52-1.3l-0.829,1.259a11.167,11.167,0,0,0,2.518,1.812,12.468,12.468,0,0,0,2.886,1.075,13.77,13.77,0,0,0,3.224.368,12.742,12.742,0,0,0,3.178-.368,7.9,7.9,0,0,0,2.472-1.073,4.716,4.716,0,0,0,1.6-1.794,5.508,5.508,0,0,0,.553-2.529,4.67,4.67,0,0,0-.936-3.066,6.264,6.264,0,0,0-2.656-1.794A26.663,26.663,0,0,0,140.818,17a29.412,29.412,0,0,1-3.654-.95,4.5,4.5,0,0,1-2.073-1.3,3.376,3.376,0,0,1-.66-2.193,4.022,4.022,0,0,1,1.459-3.265,7.239,7.239,0,0,1,4.651-1.211,10.513,10.513,0,0,1,1.843.154,8.312,8.312,0,0,1,1.6.445,6.9,6.9,0,0,1,1.382.737,6.58,6.58,0,0,1,1.167,1.029ZM149.6,28.617h1.689l2.982-7.185h10.535l2.972,7.185h1.658l-9.212-21.8h-1.351Zm5.207-8.475L159.548,8.72l4.724,11.422h-9.465Zm39.853-.63A5.424,5.424,0,0,0,191.7,17.44,4.908,4.908,0,0,0,194,15.4a5.828,5.828,0,0,0,.829-3.024,6.178,6.178,0,0,0-.6-2.656,5.349,5.349,0,0,0-1.72-2.088,4.4,4.4,0,0,0-2.656-.814H179.691v21.8h10.194a5.927,5.927,0,0,0,2.963-.752,5.75,5.75,0,0,0,2.119-2.026,5.372,5.372,0,0,0,.783-2.871A5.785,5.785,0,0,0,194.66,19.513Zm-1.044,5.4a4.549,4.549,0,0,1-1.551,1.658,3.957,3.957,0,0,1-2.18.629h-8.628V18.269H190.1a3.553,3.553,0,0,1,2.088.645,4.65,4.65,0,0,1,1.458,1.658,4.587,4.587,0,0,1,.538,2.18A4.421,4.421,0,0,1,193.616,24.917ZM189.424,8.228a3.478,3.478,0,0,1,2.012.6,4.109,4.109,0,0,1,1.366,1.581,4.813,4.813,0,0,1,.491,2.18,4.587,4.587,0,0,1-1.949,3.731,3.594,3.594,0,0,1-2.1.629h-7.983V8.228h8.167ZM214.6,28.617V27.2h-13.02V6.816h-1.566v21.8H214.6Zm4.82,0V6.816h-1.566v21.8h1.566Zm7.277,0V20.388h7.063l5.281,8.229h1.812l-5.435-8.475a5.273,5.273,0,0,0,2.686-1.167,6.543,6.543,0,0,0,1.8-2.364,7.228,7.228,0,0,0,.644-3.04,6.6,6.6,0,0,0-.475-2.456,7.468,7.468,0,0,0-1.321-2.165,6.56,6.56,0,0,0-2-1.551,5.592,5.592,0,0,0-2.564-.583h-9.058v21.8H226.7Zm0-20.388h7.431a4.2,4.2,0,0,1,2.441.752,5.607,5.607,0,0,1,1.75,1.965,5.407,5.407,0,0,1,.66,2.625,6.138,6.138,0,0,1-.568,2.61,5.069,5.069,0,0,1-1.612,2,4.032,4.032,0,0,1-2.456.768H226.7V8.228ZM254.519,27.2V18.146H265.6V16.8H254.519V8.228H267.2V6.816H252.953v21.8h14.523V27.2H254.519Zm33.745,1.413H289.8V6.816h-1.566V26.007l-15.2-19.191h-1.29v21.8h1.566V9.733Zm16.673,0V6.816h-1.566v21.8h1.566Zm22.23,0H328.7V6.816h-1.566V26.007l-15.2-19.191h-1.289v21.8h1.566V9.733Zm4.821-21.8,9.212,21.8h1.5l9.181-21.8h-1.658l-8.291,19.836-8.29-19.836h-1.658ZM356.8,27.2V18.146h11.085V16.8H356.8V8.228h12.682V6.816H355.232v21.8h14.523V27.2H356.8Zm30.46-17.993a9.1,9.1,0,0,0-1.919-1.428,8.543,8.543,0,0,0-2.241-.844,11.811,11.811,0,0,0-2.625-.276,10.7,10.7,0,0,0-4.023.705,5.959,5.959,0,0,0-2.717,2.07,5.6,5.6,0,0,0-.968,3.327,4.47,4.47,0,0,0,.814,2.821A5.429,5.429,0,0,0,376,17.241a26.993,26.993,0,0,0,3.915,1.1,28.382,28.382,0,0,1,3.838,1.058,5.232,5.232,0,0,1,2.272,1.457,3.53,3.53,0,0,1,.737,2.33,3.511,3.511,0,0,1-1.612,3.142,8.09,8.09,0,0,1-4.468,1.057,11.877,11.877,0,0,1-2.364-.23,12.314,12.314,0,0,1-2.134-.63,9.8,9.8,0,0,1-1.842-.967,8.433,8.433,0,0,1-1.52-1.3L372,25.515a11.189,11.189,0,0,0,2.518,1.812A12.468,12.468,0,0,0,377.4,28.4a13.77,13.77,0,0,0,3.224.368A12.742,12.742,0,0,0,383.8,28.4a7.9,7.9,0,0,0,2.472-1.073,4.719,4.719,0,0,0,1.6-1.794,5.52,5.52,0,0,0,.552-2.529,4.67,4.67,0,0,0-.936-3.066,6.264,6.264,0,0,0-2.656-1.794A26.663,26.663,0,0,0,380.748,17a29.412,29.412,0,0,1-3.654-.95,4.5,4.5,0,0,1-2.073-1.3,3.376,3.376,0,0,1-.66-2.193,4.022,4.022,0,0,1,1.459-3.265,7.24,7.24,0,0,1,4.652-1.211,10.5,10.5,0,0,1,1.842.154,8.343,8.343,0,0,1,1.6.445,6.917,6.917,0,0,1,1.381.737,6.58,6.58,0,0,1,1.167,1.029Zm20.235-2.4H389.96V8.228h7.983V28.617h1.566V8.228h7.983V6.816ZM412.436,27.2V18.146H423.52V16.8H412.436V8.228h12.681V6.816H410.87v21.8h14.523V27.2H412.436Zm18.791,1.413V20.388h7.063l5.281,8.229h1.812l-5.435-8.475a5.273,5.273,0,0,0,2.686-1.167,6.543,6.543,0,0,0,1.8-2.364,7.229,7.229,0,0,0,.645-3.04,6.6,6.6,0,0,0-.476-2.456,7.468,7.468,0,0,0-1.321-2.165,6.56,6.56,0,0,0-2-1.551,5.591,5.591,0,0,0-2.563-.583h-9.059v21.8h1.566Zm0-20.388h7.431a4.2,4.2,0,0,1,2.441.752,5.6,5.6,0,0,1,1.75,1.965,5.408,5.408,0,0,1,.661,2.625,6.153,6.153,0,0,1-.568,2.61,5.078,5.078,0,0,1-1.612,2,4.037,4.037,0,0,1-2.457.768h-7.646V8.228Zm19.928,20.388V6.816h-1.566v21.8h1.566Zm22.231,0h1.535V6.816h-1.566V26.007l-15.2-19.191h-1.29v21.8h1.566V9.733ZM497,24.809v-1.75a12,12,0,0,1-3.593,3.239,8.16,8.16,0,0,1-3.991,1.029,7.767,7.767,0,0,1-3.409-.768,8.8,8.8,0,0,1-2.794-2.119,10.22,10.22,0,0,1-1.873-3.071,9.908,9.908,0,0,1-.675-3.654,10.918,10.918,0,0,1,.583-3.531,9.944,9.944,0,0,1,1.689-3.086,8.358,8.358,0,0,1,2.671-2.18,7.482,7.482,0,0,1,3.5-.814,8.694,8.694,0,0,1,4.13.967,7.017,7.017,0,0,1,2.932,3.117l1.29-.768A8.773,8.773,0,0,0,494.4,8a9.364,9.364,0,0,0-5.266-1.336,8.994,8.994,0,0,0-4.022.906,10.114,10.114,0,0,0-3.193,2.456,11.341,11.341,0,0,0-2.088,3.531,11.732,11.732,0,0,0-.737,4.13,11.274,11.274,0,0,0,.752,4.038,11.653,11.653,0,0,0,2.134,3.562,10.738,10.738,0,0,0,3.255,2.533,8.88,8.88,0,0,0,4.084.952A9.691,9.691,0,0,0,497,24.809h0Zm-0.338,3.808h1.351V18.023h-6.294v1.259h4.943v9.335Z"/>
</svg>
